<?xml version='1.0' encoding='utf-8'?>
<svg xmlns="http://www.w3.org/2000/svg" style="isolation:isolate" viewBox="0 0 612 792" width="612" height="792"><defs><clipPath id="_clipPath_eiFI7vDcmOwpwzNSNJXdV1MR3AkzgFsk"><rect width="612" height="792"/></clipPath></defs><g clip-path="url(#_clipPath_eiFI7vDcmOwpwzNSNJXdV1MR3AkzgFsk)"><rect width="612" height="792" style="fill:rgb(0,0,0)"/><defs><filter id="ZsqYfzmwqM0fnU3jKfrtvhAyeZhCkDLs" x="-200%" y="-200%" width="400%" height="400%"><feOffset xmlns="http://www.w3.org/2000/svg" in="SourceAlpha" result="offOut" dx="0" dy="0"/><feGaussianBlur xmlns="http://www.w3.org/2000/svg" in="offOut" result="blurOut" stdDeviation="2.5"/><feComponentTransfer xmlns="http://www.w3.org/2000/svg" in="blurOut" result="opacOut"><feFuncA xmlns="http://www.w3.org/2000/svg" type="table" tableValues="0 0.5"/></feComponentTransfer><feBlend xmlns="http://www.w3.org/2000/svg" in="SourceGraphic" in2="opacOut" mode="normal"/></filter></defs><g filter="url(#ZsqYfzmwqM0fnU3jKfrtvhAyeZhCkDLs)"><path d="M 121.553 83.75 L 479.962 83.75 C 500.22 83.75 516.667 100.197 516.667 120.455 L 516.667 696.629 C 516.667 716.887 500.22 733.333 479.962 733.333 L 121.553 733.333 C 101.295 733.333 84.848 716.887 84.848 696.629 L 84.848 120.455 C 84.848 100.197 101.295 83.75 121.553 83.75 Z" style="stroke:none;fill:#777758;stroke-miterlimit:10;"/></g><defs><filter id="iiMVFnrLlK1uIRqFVxHQersoFXAIPtHX" x="-200%" y="-200%" width="400%" height="400%"><feOffset xmlns="http://www.w3.org/2000/svg" in="SourceAlpha" result="offOut" dx="0" dy="0"/><feGaussianBlur xmlns="http://www.w3.org/2000/svg" in="offOut" result="blurOut" stdDeviation="2.5"/><feComponentTransfer xmlns="http://www.w3.org/2000/svg" in="blurOut" result="opacOut"><feFuncA xmlns="http://www.w3.org/2000/svg" type="table" tableValues="0 0.5"/></feComponentTransfer><feBlend xmlns="http://www.w3.org/2000/svg" in="SourceGraphic" in2="opacOut" mode="normal"/></filter></defs><g filter="url(#iiMVFnrLlK1uIRqFVxHQersoFXAIPtHX)"><rect x="103.03" y="137.879" width="396.97" height="575.758" transform="matrix(1,0,0,1,0,0)" fill="rgb(232,232,232)"/></g><linearGradient id="_lgradient_6" x1="0%" y1="50%" x2="100%" y2="50%"><stop offset="1.3043478260869565%" stop-opacity="1" style="stop-color:rgb(176,174,174)"/><stop offset="7.391304347826087%" stop-opacity="1" style="stop-color:rgb(208,207,207)"/><stop offset="26.956521739130434%" stop-opacity="1" style="stop-color:rgb(123,121,121)"/><stop offset="49.56521739130435%" stop-opacity="1" style="stop-color:rgb(238,238,238)"/><stop offset="62.17391304347826%" stop-opacity="1" style="stop-color:rgb(128,125,125)"/><stop offset="75.65217391304347%" stop-opacity="1" style="stop-color:rgb(227,226,226)"/><stop offset="91.73913043478261%" stop-opacity="1" style="stop-color:rgb(155,154,154)"/></linearGradient><linearGradient id="_lgradient_7" x1="0%" y1="50%" x2="100%" y2="50%"><stop offset="0%" stop-opacity="1" style="stop-color:rgb(12,12,12)"/><stop offset="13.91304347826087%" stop-opacity="1" style="stop-color:rgb(170,170,170)"/><stop offset="25.217391304347824%" stop-opacity="1" style="stop-color:rgb(255,255,255)"/><stop offset="26.521739130434785%" stop-opacity="1" style="stop-color:rgb(124,124,124)"/><stop offset="32.17391304347826%" stop-opacity="1" style="stop-color:rgb(177,177,177)"/><stop offset="36.95652173913043%" stop-opacity="1" style="stop-color:rgb(221,221,221)"/><stop offset="47.82608695652174%" stop-opacity="1" style="stop-color:rgb(60,60,60)"/><stop offset="62.17391304347826%" stop-opacity="1" style="stop-color:rgb(160,160,160)"/><stop offset="72.17391304347827%" stop-opacity="1" style="stop-color:rgb(225,225,225)"/><stop offset="80.43478260869566%" stop-opacity="1" style="stop-color:rgb(210,210,210)"/><stop offset="100%" stop-opacity="1" style="stop-color:rgb(0,0,0)"/></linearGradient><path d=" M 308.5 29.606 C 271.381 29.17 293.088 57.933 279.5 68.606 C 271.551 74.85 260.792 74.387 254.5 82.606 Q 244.4 95.801 254.5 126.606 Q 222.597 124.185 209.5 134.606 Q 203.787 139.151 196.5 150.606 L 196.5 166.606 L 415.5 166.606 L 415.5 150.606 Q 406.191 139.002 399.5 134.606 Q 386.616 126.141 357.5 126.606 Q 367.323 95.927 357.5 82.606 C 352.129 75.323 343.233 74.412 336.5 68.606 C 323.604 57.487 342 30 308.5 29.606 Z " fill="url(#_lgradient_6)" vector-effect="non-scaling-stroke" stroke-width="2" stroke="url(#_lgradient_7)" stroke-linejoin="miter" stroke-linecap="square" stroke-miterlimit="3"/><linearGradient id="_lgradient_8" x1="0%" y1="50%" x2="100%" y2="50%"><stop offset="0.43478260869565216%" stop-opacity="1" style="stop-color:rgb(150,150,150)"/><stop offset="7.391304347826087%" stop-opacity="1" style="stop-color:rgb(255,255,255)"/><stop offset="60%" stop-opacity="1" style="stop-color:rgb(0,0,0)"/><stop offset="92.17391304347827%" stop-opacity="1" style="stop-color:rgb(242,242,242)"/><stop offset="98.69565217391305%" stop-opacity="1" style="stop-color:rgb(71,71,71)"/></linearGradient><path d=" M 297 48.386 C 297 42.591 301.705 37.886 307.5 37.886 C 313.295 37.886 318 42.591 318 48.386 C 318 54.181 313.295 58.886 307.5 58.886 C 301.705 58.886 297 54.181 297 48.386 Z " fill="rgb(46,46,46)" vector-effect="non-scaling-stroke" stroke-width="1" stroke="url(#_lgradient_8)" stroke-linejoin="miter" stroke-linecap="butt" stroke-miterlimit="3"/><defs><filter id="Z9Th6y0CgNK8Mac4Uonk6iOtelEeiMaU" x="-200%" y="-200%" width="400%" height="400%"><feOffset xmlns="http://www.w3.org/2000/svg" in="SourceAlpha" result="offOut" dx="0" dy="1"/><feGaussianBlur xmlns="http://www.w3.org/2000/svg" in="offOut" result="blurOut" stdDeviation="0.5"/><feComponentTransfer xmlns="http://www.w3.org/2000/svg" in="blurOut" result="opacOut"><feFuncA xmlns="http://www.w3.org/2000/svg" type="table" tableValues="0 0.5"/></feComponentTransfer><feBlend xmlns="http://www.w3.org/2000/svg" in="SourceGraphic" in2="opacOut" mode="normal"/></filter></defs><g filter="url(#Z9Th6y0CgNK8Mac4Uonk6iOtelEeiMaU)"><linearGradient id="_lgradient_9" x1="73.05936073059361%" y1="88.6753565062384%" x2="73.0593607305936%" y2="-38.16287878787924%"><stop offset="11.304347826086957%" stop-opacity="1" style="stop-color:rgb(177,177,177)"/><stop offset="100%" stop-opacity="1" style="stop-color:rgb(0,0,0)"/></linearGradient><rect x="195.5" y="150.606" width="221.25" height="17.644" transform="matrix(1,0,0,1,0,0)" fill="url(#_lgradient_9)"/></g></g></svg>